<?xml version="1.0" standalone="no"?>
<svg width="100%" height="100%" viewBox="0 0 192 192" version="1.2" xmlns="http://www.w3.org/2000/svg">
  <defs>
    <pattern id="pattern_16" patternUnits="userSpaceOnUse" x="0" y="0" width="12" height="12">
      <line x1="5" y1="6" x2="7" y2="6" stroke="black" vector-effect="non-scaling-stroke" />
      <line x1="6" y1="5" x2="6" y2="7" stroke="black" vector-effect="non-scaling-stroke" />
    </pattern>
    <pattern id="pattern_24" patternUnits="userSpaceOnUse" x="0" y="0" width="8" height="8">
      <line x1="3" y1="4" x2="5" y2="4" stroke="red" vector-effect="non-scaling-stroke" />
      <line x1="4" y1="3" x2="4" y2="5" stroke="red" vector-effect="non-scaling-stroke" />
    </pattern>
    <pattern id="pattern_32" patternUnits="userSpaceOnUse" x="0" y="0" width="6" height="6">
      <line x1="2" y1="3" x2="4" y2="3" stroke="green" vector-effect="non-scaling-stroke" />
      <line x1="3" y1="2" x2="3" y2="4" stroke="green" vector-effect="non-scaling-stroke" />
    </pattern>
    <pattern id="pattern_48" patternUnits="userSpaceOnUse" x="0" y="0" width="4" height="4">
      <line x1="1" y1="2" x2="3" y2="2" stroke="blue" vector-effect="non-scaling-stroke" />
      <line x1="2" y1="1" x2="2" y2="3" stroke="blue" vector-effect="non-scaling-stroke" />
    </pattern>
  </defs>
  <rect x="0" y="0" width="192" height="192" stroke="black" vector-effect="non-scaling-stroke" fill="none" />
  <rect x="0" y="0" width="192" height="192" fill="url(#pattern_16)" />
  <rect x="0" y="0" width="192" height="192" fill="url(#pattern_24)" />
  <rect x="0" y="0" width="192" height="192" fill="url(#pattern_32)" />
  <!-- <rect x="0" y="0" width="192" height="192" fill="url(#pattern_48)" /> -->
</svg>